# xmcd
#
# Track frame offsets: 
#        150
#        7257
#        20585
#        30440
#        41713
#        51494
#        64787
#        75923
#        85630
#        98391
#        108680
#        123313
#        133267
#        140182
#        154112
#        165235
#        181243
#        193173
#        205722
#        216607
#        228256
#        239660
#        252719
#        265270
#
# Disc length: 3678 seconds
#
# Revision: 0
# Processed by: cddbd v1.5.2PL0 Copyright (c) Steve Scherf et al.
# Submitted via: ExactAudioCopy v0.95b3
#
DISCID=590e5c18
DTITLE=The Beatles  - At Hollywood Bowl - Deluxe - Purple Chick - Disc
DTITLE=2
DYEAR=1900
DGENRE=
TTITLE0=Twist And Shout (1964)
TTITLE1=You Can't Do That (1964)
TTITLE2=All My Loving (1964)
TTITLE3=She Loves You (1964)
TTITLE4=Things We Said Today (1964)
TTITLE5=Roll Over Beethoven (1964)
TTITLE6=Can't Buy Me Love (1964)
TTITLE7=If I Fell (1964)
TTITLE8=I Want To Hold Your Hand (1964)
TTITLE9=Boys (1964)
TTITLE10=A Hard Day's Night (1964)
TTITLE11=Long Tall Sally (1964)
TTITLE12=Twist And Shout (1965)
TTITLE13=She's A Woman (1965)
TTITLE14=I Feel Fine (1965)
TTITLE15=Dizzy Miss Lizzy (1965)
TTITLE16=Ticket To Ride (1965)
TTITLE17=Everybody's Trying To Be My Baby (1965)
TTITLE18=Can't Buy Me Love (1965)
TTITLE19=Baby's In Black (1965)
TTITLE20=I Wanna Be Your Man (1965)
TTITLE21=A Hard Day's Night (1965)
TTITLE22=Help (1965)
TTITLE23=I'm Down (1965)
EXTD=
EXTT0=
EXTT1=
EXTT2=
EXTT3=
EXTT4=
EXTT5=
EXTT6=
EXTT7=
EXTT8=
EXTT9=
EXTT10=
EXTT11=
EXTT12=
EXTT13=
EXTT14=
EXTT15=
EXTT16=
EXTT17=
EXTT18=
EXTT19=
EXTT20=
EXTT21=
EXTT22=
EXTT23=
PLAYORDER=
